<mxfile host="Electron" agent="Mozilla/5.0 (Windows NT 10.0; Win64; x64) AppleWebKit/537.36 (KHTML, like Gecko) draw.io/28.1.2 Chrome/138.0.7204.243 Electron/37.4.0 Safari/537.36" version="28.1.2">
  <diagram name="Страница — 1" id="1qIs3zuopc8Jdfnh8op3">
    <mxGraphModel dx="1287" dy="1178" grid="1" gridSize="10" guides="1" tooltips="1" connect="1" arrows="1" fold="1" page="1" pageScale="1" pageWidth="1920" pageHeight="1200" math="0" shadow="0">
      <root>
        <mxCell id="0" />
        <mxCell id="1" parent="0" />
        <mxCell id="QrZc4putYfhD3irV-aAy-1" value="Application" style="swimlane;fontStyle=1;align=center;verticalAlign=top;childLayout=stackLayout;horizontal=1;startSize=26;horizontalStack=0;resizeParent=1;resizeParentMax=0;resizeLast=0;collapsible=1;marginBottom=0;whiteSpace=wrap;html=1;" parent="1" vertex="1">
          <mxGeometry x="740" y="60" width="160" height="34" as="geometry" />
        </mxCell>
        <mxCell id="QrZc4putYfhD3irV-aAy-3" value="" style="line;strokeWidth=1;fillColor=none;align=left;verticalAlign=middle;spacingTop=-1;spacingLeft=3;spacingRight=3;rotatable=0;labelPosition=right;points=[];portConstraint=eastwest;strokeColor=inherit;" parent="QrZc4putYfhD3irV-aAy-1" vertex="1">
          <mxGeometry y="26" width="160" height="8" as="geometry" />
        </mxCell>
        <mxCell id="QrZc4putYfhD3irV-aAy-5" value="TicTacToe" style="swimlane;fontStyle=1;align=center;verticalAlign=top;childLayout=stackLayout;horizontal=1;startSize=26;horizontalStack=0;resizeParent=1;resizeParentMax=0;resizeLast=0;collapsible=1;marginBottom=0;whiteSpace=wrap;html=1;" parent="1" vertex="1">
          <mxGeometry x="660" y="360" width="200" height="86" as="geometry" />
        </mxCell>
        <mxCell id="QrZc4putYfhD3irV-aAy-7" value="" style="line;strokeWidth=1;fillColor=none;align=left;verticalAlign=middle;spacingTop=-1;spacingLeft=3;spacingRight=3;rotatable=0;labelPosition=right;points=[];portConstraint=eastwest;strokeColor=inherit;" parent="QrZc4putYfhD3irV-aAy-5" vertex="1">
          <mxGeometry y="26" width="200" height="8" as="geometry" />
        </mxCell>
        <mxCell id="QrZc4putYfhD3irV-aAy-8" value="+ start(Stage stage): void" style="text;strokeColor=none;fillColor=none;align=left;verticalAlign=top;spacingLeft=4;spacingRight=4;overflow=hidden;rotatable=0;points=[[0,0.5],[1,0.5]];portConstraint=eastwest;whiteSpace=wrap;html=1;" parent="QrZc4putYfhD3irV-aAy-5" vertex="1">
          <mxGeometry y="34" width="200" height="26" as="geometry" />
        </mxCell>
        <mxCell id="QrZc4putYfhD3irV-aAy-9" value="+ __main(String[] args): void" style="text;strokeColor=none;fillColor=none;align=left;verticalAlign=top;spacingLeft=4;spacingRight=4;overflow=hidden;rotatable=0;points=[[0,0.5],[1,0.5]];portConstraint=eastwest;whiteSpace=wrap;html=1;" parent="QrZc4putYfhD3irV-aAy-5" vertex="1">
          <mxGeometry y="60" width="200" height="26" as="geometry" />
        </mxCell>
        <mxCell id="QrZc4putYfhD3irV-aAy-10" value="Extends" style="endArrow=block;endSize=16;endFill=0;html=1;rounded=0;exitX=0.8;exitY=0;exitDx=0;exitDy=0;exitPerimeter=0;entryX=0.5;entryY=1;entryDx=0;entryDy=0;strokeWidth=6;" parent="1" source="QrZc4putYfhD3irV-aAy-5" target="QrZc4putYfhD3irV-aAy-1" edge="1">
          <mxGeometry width="160" relative="1" as="geometry">
            <mxPoint x="600" y="320" as="sourcePoint" />
            <mxPoint x="620" y="170" as="targetPoint" />
          </mxGeometry>
        </mxCell>
        <mxCell id="QrZc4putYfhD3irV-aAy-11" value="TicTacToeViewController" style="swimlane;fontStyle=1;align=center;verticalAlign=top;childLayout=stackLayout;horizontal=1;startSize=26;horizontalStack=0;resizeParent=1;resizeParentMax=0;resizeLast=0;collapsible=1;marginBottom=0;whiteSpace=wrap;html=1;" parent="1" vertex="1">
          <mxGeometry x="270" y="180" width="330" height="710" as="geometry" />
        </mxCell>
        <mxCell id="QrZc4putYfhD3irV-aAy-12" value="- lblPlayer: Label" style="text;strokeColor=none;fillColor=none;align=left;verticalAlign=top;spacingLeft=4;spacingRight=4;overflow=hidden;rotatable=0;points=[[0,0.5],[1,0.5]];portConstraint=eastwest;whiteSpace=wrap;html=1;" parent="QrZc4putYfhD3irV-aAy-11" vertex="1">
          <mxGeometry y="26" width="330" height="26" as="geometry" />
        </mxCell>
        <mxCell id="QrZc4putYfhD3irV-aAy-15" value="- Buttons1Row: ArrayList&amp;lt;Button&amp;gt;" style="text;strokeColor=none;fillColor=none;align=left;verticalAlign=top;spacingLeft=4;spacingRight=4;overflow=hidden;rotatable=0;points=[[0,0.5],[1,0.5]];portConstraint=eastwest;whiteSpace=wrap;html=1;" parent="QrZc4putYfhD3irV-aAy-11" vertex="1">
          <mxGeometry y="52" width="330" height="26" as="geometry" />
        </mxCell>
        <mxCell id="QrZc4putYfhD3irV-aAy-16" value="- Buttons2Row: ArrayList&amp;lt;Button&amp;gt;" style="text;strokeColor=none;fillColor=none;align=left;verticalAlign=top;spacingLeft=4;spacingRight=4;overflow=hidden;rotatable=0;points=[[0,0.5],[1,0.5]];portConstraint=eastwest;whiteSpace=wrap;html=1;" parent="QrZc4putYfhD3irV-aAy-11" vertex="1">
          <mxGeometry y="78" width="330" height="26" as="geometry" />
        </mxCell>
        <mxCell id="QrZc4putYfhD3irV-aAy-17" value="- Buttons3Row: ArrayList&amp;lt;Button&amp;gt;" style="text;strokeColor=none;fillColor=none;align=left;verticalAlign=top;spacingLeft=4;spacingRight=4;overflow=hidden;rotatable=0;points=[[0,0.5],[1,0.5]];portConstraint=eastwest;whiteSpace=wrap;html=1;" parent="QrZc4putYfhD3irV-aAy-11" vertex="1">
          <mxGeometry y="104" width="330" height="26" as="geometry" />
        </mxCell>
        <mxCell id="QrZc4putYfhD3irV-aAy-19" value="- &amp;lt;&amp;lt;FXML&amp;gt;&amp;gt; btn1: Button" style="text;strokeColor=none;fillColor=none;align=left;verticalAlign=top;spacingLeft=4;spacingRight=4;overflow=hidden;rotatable=0;points=[[0,0.5],[1,0.5]];portConstraint=eastwest;whiteSpace=wrap;html=1;" parent="QrZc4putYfhD3irV-aAy-11" vertex="1">
          <mxGeometry y="130" width="330" height="26" as="geometry" />
        </mxCell>
        <mxCell id="QrZc4putYfhD3irV-aAy-20" value="- &amp;lt;&amp;lt;FXML&amp;gt;&amp;gt; btn2: Button" style="text;strokeColor=none;fillColor=none;align=left;verticalAlign=top;spacingLeft=4;spacingRight=4;overflow=hidden;rotatable=0;points=[[0,0.5],[1,0.5]];portConstraint=eastwest;whiteSpace=wrap;html=1;" parent="QrZc4putYfhD3irV-aAy-11" vertex="1">
          <mxGeometry y="156" width="330" height="26" as="geometry" />
        </mxCell>
        <mxCell id="QrZc4putYfhD3irV-aAy-21" value="- &amp;lt;&amp;lt;FXML&amp;gt;&amp;gt; btn3: Button" style="text;strokeColor=none;fillColor=none;align=left;verticalAlign=top;spacingLeft=4;spacingRight=4;overflow=hidden;rotatable=0;points=[[0,0.5],[1,0.5]];portConstraint=eastwest;whiteSpace=wrap;html=1;" parent="QrZc4putYfhD3irV-aAy-11" vertex="1">
          <mxGeometry y="182" width="330" height="26" as="geometry" />
        </mxCell>
        <mxCell id="QrZc4putYfhD3irV-aAy-22" value="- &amp;lt;&amp;lt;FXML&amp;gt;&amp;gt; btn4: Button" style="text;strokeColor=none;fillColor=none;align=left;verticalAlign=top;spacingLeft=4;spacingRight=4;overflow=hidden;rotatable=0;points=[[0,0.5],[1,0.5]];portConstraint=eastwest;whiteSpace=wrap;html=1;" parent="QrZc4putYfhD3irV-aAy-11" vertex="1">
          <mxGeometry y="208" width="330" height="26" as="geometry" />
        </mxCell>
        <mxCell id="QrZc4putYfhD3irV-aAy-23" value="- &amp;lt;&amp;lt;FXML&amp;gt;&amp;gt; btn5: Button" style="text;strokeColor=none;fillColor=none;align=left;verticalAlign=top;spacingLeft=4;spacingRight=4;overflow=hidden;rotatable=0;points=[[0,0.5],[1,0.5]];portConstraint=eastwest;whiteSpace=wrap;html=1;" parent="QrZc4putYfhD3irV-aAy-11" vertex="1">
          <mxGeometry y="234" width="330" height="26" as="geometry" />
        </mxCell>
        <mxCell id="QrZc4putYfhD3irV-aAy-24" value="- &amp;lt;&amp;lt;FXML&amp;gt;&amp;gt; btn6: Button" style="text;strokeColor=none;fillColor=none;align=left;verticalAlign=top;spacingLeft=4;spacingRight=4;overflow=hidden;rotatable=0;points=[[0,0.5],[1,0.5]];portConstraint=eastwest;whiteSpace=wrap;html=1;" parent="QrZc4putYfhD3irV-aAy-11" vertex="1">
          <mxGeometry y="260" width="330" height="26" as="geometry" />
        </mxCell>
        <mxCell id="QrZc4putYfhD3irV-aAy-25" value="- &amp;lt;&amp;lt;FXML&amp;gt;&amp;gt; btn7: Button" style="text;strokeColor=none;fillColor=none;align=left;verticalAlign=top;spacingLeft=4;spacingRight=4;overflow=hidden;rotatable=0;points=[[0,0.5],[1,0.5]];portConstraint=eastwest;whiteSpace=wrap;html=1;" parent="QrZc4putYfhD3irV-aAy-11" vertex="1">
          <mxGeometry y="286" width="330" height="26" as="geometry" />
        </mxCell>
        <mxCell id="QrZc4putYfhD3irV-aAy-18" value="- &amp;lt;&amp;lt;FXML&amp;gt;&amp;gt; btn8: Button" style="text;strokeColor=none;fillColor=none;align=left;verticalAlign=top;spacingLeft=4;spacingRight=4;overflow=hidden;rotatable=0;points=[[0,0.5],[1,0.5]];portConstraint=eastwest;whiteSpace=wrap;html=1;" parent="QrZc4putYfhD3irV-aAy-11" vertex="1">
          <mxGeometry y="312" width="330" height="26" as="geometry" />
        </mxCell>
        <mxCell id="QrZc4putYfhD3irV-aAy-26" value="- &amp;lt;&amp;lt;FXML&amp;gt;&amp;gt; btn9: Button" style="text;strokeColor=none;fillColor=none;align=left;verticalAlign=top;spacingLeft=4;spacingRight=4;overflow=hidden;rotatable=0;points=[[0,0.5],[1,0.5]];portConstraint=eastwest;whiteSpace=wrap;html=1;" parent="QrZc4putYfhD3irV-aAy-11" vertex="1">
          <mxGeometry y="338" width="330" height="26" as="geometry" />
        </mxCell>
        <mxCell id="QrZc4putYfhD3irV-aAy-27" value="- &amp;lt;&amp;lt;FXML&amp;gt;&amp;gt; gridPane: GridPane" style="text;strokeColor=none;fillColor=none;align=left;verticalAlign=top;spacingLeft=4;spacingRight=4;overflow=hidden;rotatable=0;points=[[0,0.5],[1,0.5]];portConstraint=eastwest;whiteSpace=wrap;html=1;" parent="QrZc4putYfhD3irV-aAy-11" vertex="1">
          <mxGeometry y="364" width="330" height="26" as="geometry" />
        </mxCell>
        <mxCell id="QrZc4putYfhD3irV-aAy-28" value="- &amp;lt;&amp;lt;FXML&amp;gt;&amp;gt; btnNewGame: Button" style="text;strokeColor=none;fillColor=none;align=left;verticalAlign=top;spacingLeft=4;spacingRight=4;overflow=hidden;rotatable=0;points=[[0,0.5],[1,0.5]];portConstraint=eastwest;whiteSpace=wrap;html=1;" parent="QrZc4putYfhD3irV-aAy-11" vertex="1">
          <mxGeometry y="390" width="330" height="26" as="geometry" />
        </mxCell>
        <mxCell id="QrZc4putYfhD3irV-aAy-29" value="- __TXT_PLAYER: String {readonly}" style="text;strokeColor=none;fillColor=none;align=left;verticalAlign=top;spacingLeft=4;spacingRight=4;overflow=hidden;rotatable=0;points=[[0,0.5],[1,0.5]];portConstraint=eastwest;whiteSpace=wrap;html=1;" parent="QrZc4putYfhD3irV-aAy-11" vertex="1">
          <mxGeometry y="416" width="330" height="26" as="geometry" />
        </mxCell>
        <mxCell id="QrZc4putYfhD3irV-aAy-30" value="- game: IGameBoard" style="text;strokeColor=none;fillColor=none;align=left;verticalAlign=top;spacingLeft=4;spacingRight=4;overflow=hidden;rotatable=0;points=[[0,0.5],[1,0.5]];portConstraint=eastwest;whiteSpace=wrap;html=1;" parent="QrZc4putYfhD3irV-aAy-11" vertex="1">
          <mxGeometry y="442" width="330" height="26" as="geometry" />
        </mxCell>
        <mxCell id="QrZc4putYfhD3irV-aAy-32" value="- player: int" style="text;strokeColor=none;fillColor=none;align=left;verticalAlign=top;spacingLeft=4;spacingRight=4;overflow=hidden;rotatable=0;points=[[0,0.5],[1,0.5]];portConstraint=eastwest;whiteSpace=wrap;html=1;" parent="QrZc4putYfhD3irV-aAy-11" vertex="1">
          <mxGeometry y="468" width="330" height="26" as="geometry" />
        </mxCell>
        <mxCell id="QrZc4putYfhD3irV-aAy-13" value="" style="line;strokeWidth=1;fillColor=none;align=left;verticalAlign=middle;spacingTop=-1;spacingLeft=3;spacingRight=3;rotatable=0;labelPosition=right;points=[];portConstraint=eastwest;strokeColor=inherit;" parent="QrZc4putYfhD3irV-aAy-11" vertex="1">
          <mxGeometry y="494" width="330" height="8" as="geometry" />
        </mxCell>
        <mxCell id="QrZc4putYfhD3irV-aAy-14" value="- &amp;lt;&amp;lt;FXML&amp;gt;&amp;gt; handleButtonAction(ActionEvent event): void" style="text;strokeColor=none;fillColor=none;align=left;verticalAlign=top;spacingLeft=4;spacingRight=4;overflow=hidden;rotatable=0;points=[[0,0.5],[1,0.5]];portConstraint=eastwest;whiteSpace=wrap;html=1;" parent="QrZc4putYfhD3irV-aAy-11" vertex="1">
          <mxGeometry y="502" width="330" height="26" as="geometry" />
        </mxCell>
        <mxCell id="QrZc4putYfhD3irV-aAy-34" value="- &amp;lt;&amp;lt;FXML&amp;gt;&amp;gt; handleNewGame(ActionEvent event): void" style="text;strokeColor=none;fillColor=none;align=left;verticalAlign=top;spacingLeft=4;spacingRight=4;overflow=hidden;rotatable=0;points=[[0,0.5],[1,0.5]];portConstraint=eastwest;whiteSpace=wrap;html=1;" parent="QrZc4putYfhD3irV-aAy-11" vertex="1">
          <mxGeometry y="528" width="330" height="26" as="geometry" />
        </mxCell>
        <mxCell id="QrZc4putYfhD3irV-aAy-35" value="+ initialize(URL url, ResourceBundle rb): void" style="text;strokeColor=none;fillColor=none;align=left;verticalAlign=top;spacingLeft=4;spacingRight=4;overflow=hidden;rotatable=0;points=[[0,0.5],[1,0.5]];portConstraint=eastwest;whiteSpace=wrap;html=1;" parent="QrZc4putYfhD3irV-aAy-11" vertex="1">
          <mxGeometry y="554" width="330" height="26" as="geometry" />
        </mxCell>
        <mxCell id="QrZc4putYfhD3irV-aAy-36" value="- setPlayer(): void&amp;nbsp;" style="text;strokeColor=none;fillColor=none;align=left;verticalAlign=top;spacingLeft=4;spacingRight=4;overflow=hidden;rotatable=0;points=[[0,0.5],[1,0.5]];portConstraint=eastwest;whiteSpace=wrap;html=1;" parent="QrZc4putYfhD3irV-aAy-11" vertex="1">
          <mxGeometry y="580" width="330" height="26" as="geometry" />
        </mxCell>
        <mxCell id="QrZc4putYfhD3irV-aAy-37" value="- setPlayer(int player): void&amp;nbsp;" style="text;strokeColor=none;fillColor=none;align=left;verticalAlign=top;spacingLeft=4;spacingRight=4;overflow=hidden;rotatable=0;points=[[0,0.5],[1,0.5]];portConstraint=eastwest;whiteSpace=wrap;html=1;" parent="QrZc4putYfhD3irV-aAy-11" vertex="1">
          <mxGeometry y="606" width="330" height="26" as="geometry" />
        </mxCell>
        <mxCell id="QrZc4putYfhD3irV-aAy-38" value="- setPlayer(int player): void&amp;nbsp;" style="text;strokeColor=none;fillColor=none;align=left;verticalAlign=top;spacingLeft=4;spacingRight=4;overflow=hidden;rotatable=0;points=[[0,0.5],[1,0.5]];portConstraint=eastwest;whiteSpace=wrap;html=1;" parent="QrZc4putYfhD3irV-aAy-11" vertex="1">
          <mxGeometry y="632" width="330" height="26" as="geometry" />
        </mxCell>
        <mxCell id="QrZc4putYfhD3irV-aAy-39" value="- displayWinner(int winner): void" style="text;strokeColor=none;fillColor=none;align=left;verticalAlign=top;spacingLeft=4;spacingRight=4;overflow=hidden;rotatable=0;points=[[0,0.5],[1,0.5]];portConstraint=eastwest;whiteSpace=wrap;html=1;" parent="QrZc4putYfhD3irV-aAy-11" vertex="1">
          <mxGeometry y="658" width="330" height="26" as="geometry" />
        </mxCell>
        <mxCell id="QrZc4putYfhD3irV-aAy-40" value="- cleanBoard(): void" style="text;strokeColor=none;fillColor=none;align=left;verticalAlign=top;spacingLeft=4;spacingRight=4;overflow=hidden;rotatable=0;points=[[0,0.5],[1,0.5]];portConstraint=eastwest;whiteSpace=wrap;html=1;" parent="QrZc4putYfhD3irV-aAy-11" vertex="1">
          <mxGeometry y="684" width="330" height="26" as="geometry" />
        </mxCell>
        <mxCell id="QrZc4putYfhD3irV-aAy-45" value="IGameBoard(Interface)" style="swimlane;fontStyle=1;align=center;verticalAlign=top;childLayout=stackLayout;horizontal=1;startSize=26;horizontalStack=0;resizeParent=1;resizeParentMax=0;resizeLast=0;collapsible=1;marginBottom=0;whiteSpace=wrap;html=1;" parent="1" vertex="1">
          <mxGeometry x="980" y="196" width="160" height="164" as="geometry" />
        </mxCell>
        <mxCell id="QrZc4putYfhD3irV-aAy-47" value="" style="line;strokeWidth=1;fillColor=none;align=left;verticalAlign=middle;spacingTop=-1;spacingLeft=3;spacingRight=3;rotatable=0;labelPosition=right;points=[];portConstraint=eastwest;strokeColor=inherit;" parent="QrZc4putYfhD3irV-aAy-45" vertex="1">
          <mxGeometry y="26" width="160" height="8" as="geometry" />
        </mxCell>
        <mxCell id="QrZc4putYfhD3irV-aAy-48" value="getNextPlayer(): int" style="text;strokeColor=none;fillColor=none;align=left;verticalAlign=top;spacingLeft=4;spacingRight=4;overflow=hidden;rotatable=0;points=[[0,0.5],[1,0.5]];portConstraint=eastwest;whiteSpace=wrap;html=1;" parent="QrZc4putYfhD3irV-aAy-45" vertex="1">
          <mxGeometry y="34" width="160" height="26" as="geometry" />
        </mxCell>
        <mxCell id="QrZc4putYfhD3irV-aAy-49" value="play(int col, int row): bool" style="text;strokeColor=none;fillColor=none;align=left;verticalAlign=top;spacingLeft=4;spacingRight=4;overflow=hidden;rotatable=0;points=[[0,0.5],[1,0.5]];portConstraint=eastwest;whiteSpace=wrap;html=1;" parent="QrZc4putYfhD3irV-aAy-45" vertex="1">
          <mxGeometry y="60" width="160" height="26" as="geometry" />
        </mxCell>
        <mxCell id="QrZc4putYfhD3irV-aAy-50" value="isGameOver(): bool" style="text;strokeColor=none;fillColor=none;align=left;verticalAlign=top;spacingLeft=4;spacingRight=4;overflow=hidden;rotatable=0;points=[[0,0.5],[1,0.5]];portConstraint=eastwest;whiteSpace=wrap;html=1;" parent="QrZc4putYfhD3irV-aAy-45" vertex="1">
          <mxGeometry y="86" width="160" height="26" as="geometry" />
        </mxCell>
        <mxCell id="QrZc4putYfhD3irV-aAy-51" value="getWinner(): int" style="text;strokeColor=none;fillColor=none;align=left;verticalAlign=top;spacingLeft=4;spacingRight=4;overflow=hidden;rotatable=0;points=[[0,0.5],[1,0.5]];portConstraint=eastwest;whiteSpace=wrap;html=1;" parent="QrZc4putYfhD3irV-aAy-45" vertex="1">
          <mxGeometry y="112" width="160" height="26" as="geometry" />
        </mxCell>
        <mxCell id="QrZc4putYfhD3irV-aAy-52" value="newGame(): void" style="text;strokeColor=none;fillColor=none;align=left;verticalAlign=top;spacingLeft=4;spacingRight=4;overflow=hidden;rotatable=0;points=[[0,0.5],[1,0.5]];portConstraint=eastwest;whiteSpace=wrap;html=1;" parent="QrZc4putYfhD3irV-aAy-45" vertex="1">
          <mxGeometry y="138" width="160" height="26" as="geometry" />
        </mxCell>
        <mxCell id="QrZc4putYfhD3irV-aAy-53" value="GameBoard" style="swimlane;fontStyle=1;align=center;verticalAlign=top;childLayout=stackLayout;horizontal=1;startSize=26;horizontalStack=0;resizeParent=1;resizeParentMax=0;resizeLast=0;collapsible=1;marginBottom=0;whiteSpace=wrap;html=1;" parent="1" vertex="1">
          <mxGeometry x="860" y="506" width="220" height="346" as="geometry" />
        </mxCell>
        <mxCell id="QrZc4putYfhD3irV-aAy-54" value="- matrix: ArrayList&amp;lt;ArrayList&amp;lt;Button&amp;gt;&amp;gt;" style="text;strokeColor=none;fillColor=none;align=left;verticalAlign=top;spacingLeft=4;spacingRight=4;overflow=hidden;rotatable=0;points=[[0,0.5],[1,0.5]];portConstraint=eastwest;whiteSpace=wrap;html=1;" parent="QrZc4putYfhD3irV-aAy-53" vertex="1">
          <mxGeometry y="26" width="220" height="26" as="geometry" />
        </mxCell>
        <mxCell id="QrZc4putYfhD3irV-aAy-57" value="- counter: int" style="text;strokeColor=none;fillColor=none;align=left;verticalAlign=top;spacingLeft=4;spacingRight=4;overflow=hidden;rotatable=0;points=[[0,0.5],[1,0.5]];portConstraint=eastwest;whiteSpace=wrap;html=1;" parent="QrZc4putYfhD3irV-aAy-53" vertex="1">
          <mxGeometry y="52" width="220" height="26" as="geometry" />
        </mxCell>
        <mxCell id="QrZc4putYfhD3irV-aAy-58" value="- player: int" style="text;strokeColor=none;fillColor=none;align=left;verticalAlign=top;spacingLeft=4;spacingRight=4;overflow=hidden;rotatable=0;points=[[0,0.5],[1,0.5]];portConstraint=eastwest;whiteSpace=wrap;html=1;" parent="QrZc4putYfhD3irV-aAy-53" vertex="1">
          <mxGeometry y="78" width="220" height="26" as="geometry" />
        </mxCell>
        <mxCell id="QrZc4putYfhD3irV-aAy-59" value="- flag: bool" style="text;strokeColor=none;fillColor=none;align=left;verticalAlign=top;spacingLeft=4;spacingRight=4;overflow=hidden;rotatable=0;points=[[0,0.5],[1,0.5]];portConstraint=eastwest;whiteSpace=wrap;html=1;" parent="QrZc4putYfhD3irV-aAy-53" vertex="1">
          <mxGeometry y="104" width="220" height="26" as="geometry" />
        </mxCell>
        <mxCell id="QrZc4putYfhD3irV-aAy-60" value="- winner: int" style="text;strokeColor=none;fillColor=none;align=left;verticalAlign=top;spacingLeft=4;spacingRight=4;overflow=hidden;rotatable=0;points=[[0,0.5],[1,0.5]];portConstraint=eastwest;whiteSpace=wrap;html=1;" parent="QrZc4putYfhD3irV-aAy-53" vertex="1">
          <mxGeometry y="130" width="220" height="26" as="geometry" />
        </mxCell>
        <mxCell id="QrZc4putYfhD3irV-aAy-55" value="" style="line;strokeWidth=1;fillColor=none;align=left;verticalAlign=middle;spacingTop=-1;spacingLeft=3;spacingRight=3;rotatable=0;labelPosition=right;points=[];portConstraint=eastwest;strokeColor=inherit;" parent="QrZc4putYfhD3irV-aAy-53" vertex="1">
          <mxGeometry y="156" width="220" height="8" as="geometry" />
        </mxCell>
        <mxCell id="QrZc4putYfhD3irV-aAy-56" value="+ getNextPlayer(): int" style="text;strokeColor=none;fillColor=none;align=left;verticalAlign=top;spacingLeft=4;spacingRight=4;overflow=hidden;rotatable=0;points=[[0,0.5],[1,0.5]];portConstraint=eastwest;whiteSpace=wrap;html=1;" parent="QrZc4putYfhD3irV-aAy-53" vertex="1">
          <mxGeometry y="164" width="220" height="26" as="geometry" />
        </mxCell>
        <mxCell id="QrZc4putYfhD3irV-aAy-61" value="+ play(int col, int row): bool" style="text;strokeColor=none;fillColor=none;align=left;verticalAlign=top;spacingLeft=4;spacingRight=4;overflow=hidden;rotatable=0;points=[[0,0.5],[1,0.5]];portConstraint=eastwest;whiteSpace=wrap;html=1;" parent="QrZc4putYfhD3irV-aAy-53" vertex="1">
          <mxGeometry y="190" width="220" height="26" as="geometry" />
        </mxCell>
        <mxCell id="QrZc4putYfhD3irV-aAy-62" value="- checkDraw(): bool" style="text;strokeColor=none;fillColor=none;align=left;verticalAlign=top;spacingLeft=4;spacingRight=4;overflow=hidden;rotatable=0;points=[[0,0.5],[1,0.5]];portConstraint=eastwest;whiteSpace=wrap;html=1;" parent="QrZc4putYfhD3irV-aAy-53" vertex="1">
          <mxGeometry y="216" width="220" height="26" as="geometry" />
        </mxCell>
        <mxCell id="QrZc4putYfhD3irV-aAy-63" value="+ isGameOver(): bool" style="text;strokeColor=none;fillColor=none;align=left;verticalAlign=top;spacingLeft=4;spacingRight=4;overflow=hidden;rotatable=0;points=[[0,0.5],[1,0.5]];portConstraint=eastwest;whiteSpace=wrap;html=1;" parent="QrZc4putYfhD3irV-aAy-53" vertex="1">
          <mxGeometry y="242" width="220" height="26" as="geometry" />
        </mxCell>
        <mxCell id="QrZc4putYfhD3irV-aAy-64" value="+ getWinner(): int" style="text;strokeColor=none;fillColor=none;align=left;verticalAlign=top;spacingLeft=4;spacingRight=4;overflow=hidden;rotatable=0;points=[[0,0.5],[1,0.5]];portConstraint=eastwest;whiteSpace=wrap;html=1;" parent="QrZc4putYfhD3irV-aAy-53" vertex="1">
          <mxGeometry y="268" width="220" height="26" as="geometry" />
        </mxCell>
        <mxCell id="QrZc4putYfhD3irV-aAy-65" value="- setWinner(int player): void" style="text;strokeColor=none;fillColor=none;align=left;verticalAlign=top;spacingLeft=4;spacingRight=4;overflow=hidden;rotatable=0;points=[[0,0.5],[1,0.5]];portConstraint=eastwest;whiteSpace=wrap;html=1;" parent="QrZc4putYfhD3irV-aAy-53" vertex="1">
          <mxGeometry y="294" width="220" height="26" as="geometry" />
        </mxCell>
        <mxCell id="QrZc4putYfhD3irV-aAy-66" value="+ newGame(): void" style="text;strokeColor=none;fillColor=none;align=left;verticalAlign=top;spacingLeft=4;spacingRight=4;overflow=hidden;rotatable=0;points=[[0,0.5],[1,0.5]];portConstraint=eastwest;whiteSpace=wrap;html=1;" parent="QrZc4putYfhD3irV-aAy-53" vertex="1">
          <mxGeometry y="320" width="220" height="26" as="geometry" />
        </mxCell>
        <mxCell id="QrZc4putYfhD3irV-aAy-67" value="" style="endArrow=block;dashed=1;endFill=0;endSize=12;html=1;rounded=0;strokeWidth=6;" parent="1" target="QrZc4putYfhD3irV-aAy-52" edge="1">
          <mxGeometry width="160" relative="1" as="geometry">
            <mxPoint x="1060" y="500" as="sourcePoint" />
            <mxPoint x="1280" y="510" as="targetPoint" />
          </mxGeometry>
        </mxCell>
        <mxCell id="QrZc4putYfhD3irV-aAy-68" value="" style="endArrow=open;endFill=1;endSize=12;html=1;rounded=0;entryX=0.312;entryY=1.106;entryDx=0;entryDy=0;entryPerimeter=0;strokeWidth=5;exitX=1.009;exitY=0.844;exitDx=0;exitDy=0;exitPerimeter=0;" parent="1" source="QrZc4putYfhD3irV-aAy-25" target="QrZc4putYfhD3irV-aAy-52" edge="1">
          <mxGeometry width="160" relative="1" as="geometry">
            <mxPoint x="340" y="500" as="sourcePoint" />
            <mxPoint x="500" y="500" as="targetPoint" />
            <Array as="points">
              <mxPoint x="1030" y="490" />
            </Array>
          </mxGeometry>
        </mxCell>
      </root>
    </mxGraphModel>
  </diagram>
</mxfile>
